<?xml version="1.0" encoding="utf-8" standalone="no"?>
<!DOCTYPE svg PUBLIC "-//W3C//DTD SVG 1.1//EN"
  "http://www.w3.org/Graphics/SVG/1.1/DTD/svg11.dtd">
<svg xmlns:xlink="http://www.w3.org/1999/xlink" width="720pt" height="144pt" viewBox="0 0 720 144" xmlns="http://www.w3.org/2000/svg" version="1.1">
 <metadata>
  <rdf:RDF xmlns:dc="http://purl.org/dc/elements/1.1/" xmlns:cc="http://creativecommons.org/ns#" xmlns:rdf="http://www.w3.org/1999/02/22-rdf-syntax-ns#">
   <cc:Work>
    <dc:type rdf:resource="http://purl.org/dc/dcmitype/StillImage"/>
    <dc:date>2024-07-29T10:52:23.197815</dc:date>
    <dc:format>image/svg+xml</dc:format>
    <dc:creator>
     <cc:Agent>
      <dc:title>Matplotlib v3.7.1, https://matplotlib.org/</dc:title>
     </cc:Agent>
    </dc:creator>
   </cc:Work>
  </rdf:RDF>
 </metadata>
 <defs>
  <style type="text/css">*{stroke-linejoin: round; stroke-linecap: butt}</style>
 </defs>
 <g id="figure_1">
  <g id="patch_1">
   <path d="M 0 144 
L 720 144 
L 720 0 
L 0 0 
z
" style="fill: #ffffff"/>
  </g>
  <g id="axes_1">
   <g id="patch_2">
    <path d="M 69.77 88.216 
L 248.700074 88.216 
L 248.700074 10.8 
L 69.77 10.8 
z
" style="fill: #ffffff"/>
   </g>
   <g id="patch_3">
    <path d="M 77.903185 88.216 
L 86.03637 88.216 
L 86.03637 14.486476 
L 77.903185 14.486476 
z
" clip-path="url(#p251391948b)" style="fill: #008000; opacity: 0.5"/>
   </g>
   <g id="patch_4">
    <path d="M 86.03637 88.216 
L 94.169556 88.216 
L 94.169556 20.366745 
L 86.03637 20.366745 
z
" clip-path="url(#p251391948b)" style="fill: #008000; opacity: 0.5"/>
   </g>
   <g id="patch_5">
    <path d="M 94.169556 88.216 
L 102.302741 88.216 
L 102.302741 36.650566 
L 94.169556 36.650566 
z
" clip-path="url(#p251391948b)" style="fill: #008000; opacity: 0.5"/>
   </g>
   <g id="patch_6">
    <path d="M 102.302741 88.216 
L 110.435926 88.216 
L 110.435926 34.388924 
L 102.302741 34.388924 
z
" clip-path="url(#p251391948b)" style="fill: #008000; opacity: 0.5"/>
   </g>
   <g id="patch_7">
    <path d="M 110.435926 88.216 
L 118.569111 88.216 
L 118.569111 45.697134 
L 110.435926 45.697134 
z
" clip-path="url(#p251391948b)" style="fill: #008000; opacity: 0.5"/>
   </g>
   <g id="patch_8">
    <path d="M 118.569111 88.216 
L 126.702296 88.216 
L 126.702296 51.125074 
L 118.569111 51.125074 
z
" clip-path="url(#p251391948b)" style="fill: #008000; opacity: 0.5"/>
   </g>
   <g id="patch_9">
    <path d="M 126.702296 88.216 
L 134.835482 88.216 
L 134.835482 56.553014 
L 126.702296 56.553014 
z
" clip-path="url(#p251391948b)" style="fill: #008000; opacity: 0.5"/>
   </g>
   <g id="patch_10">
    <path d="M 134.835482 88.216 
L 142.968667 88.216 
L 142.968667 59.266985 
L 134.835482 59.266985 
z
" clip-path="url(#p251391948b)" style="fill: #008000; opacity: 0.5"/>
   </g>
   <g id="patch_11">
    <path d="M 142.968667 88.216 
L 151.101852 88.216 
L 151.101852 72.384507 
L 142.968667 72.384507 
z
" clip-path="url(#p251391948b)" style="fill: #008000; opacity: 0.5"/>
   </g>
   <g id="patch_12">
    <path d="M 151.101852 88.216 
L 159.235037 88.216 
L 159.235037 70.575194 
L 151.101852 70.575194 
z
" clip-path="url(#p251391948b)" style="fill: #008000; opacity: 0.5"/>
   </g>
   <g id="patch_13">
    <path d="M 159.235037 88.216 
L 167.368222 88.216 
L 167.368222 77.812448 
L 159.235037 77.812448 
z
" clip-path="url(#p251391948b)" style="fill: #008000; opacity: 0.5"/>
   </g>
   <g id="patch_14">
    <path d="M 167.368222 88.216 
L 175.501407 88.216 
L 175.501407 83.692716 
L 167.368222 83.692716 
z
" clip-path="url(#p251391948b)" style="fill: #008000; opacity: 0.5"/>
   </g>
   <g id="patch_15">
    <path d="M 175.501407 88.216 
L 183.634593 88.216 
L 183.634593 80.978746 
L 175.501407 80.978746 
z
" clip-path="url(#p251391948b)" style="fill: #008000; opacity: 0.5"/>
   </g>
   <g id="patch_16">
    <path d="M 183.634593 88.216 
L 191.767778 88.216 
L 191.767778 85.049701 
L 183.634593 85.049701 
z
" clip-path="url(#p251391948b)" style="fill: #008000; opacity: 0.5"/>
   </g>
   <g id="patch_17">
    <path d="M 191.767778 88.216 
L 199.900963 88.216 
L 199.900963 86.859015 
L 191.767778 86.859015 
z
" clip-path="url(#p251391948b)" style="fill: #008000; opacity: 0.5"/>
   </g>
   <g id="patch_18">
    <path d="M 199.900963 88.216 
L 208.034148 88.216 
L 208.034148 85.50203 
L 199.900963 85.50203 
z
" clip-path="url(#p251391948b)" style="fill: #008000; opacity: 0.5"/>
   </g>
   <g id="patch_19">
    <path d="M 208.034148 88.216 
L 216.167333 88.216 
L 216.167333 86.859015 
L 208.034148 86.859015 
z
" clip-path="url(#p251391948b)" style="fill: #008000; opacity: 0.5"/>
   </g>
   <g id="patch_20">
    <path d="M 216.167333 88.216 
L 224.300519 88.216 
L 224.300519 88.216 
L 216.167333 88.216 
z
" clip-path="url(#p251391948b)" style="fill: #008000; opacity: 0.5"/>
   </g>
   <g id="patch_21">
    <path d="M 224.300519 88.216 
L 232.433704 88.216 
L 232.433704 88.216 
L 224.300519 88.216 
z
" clip-path="url(#p251391948b)" style="fill: #008000; opacity: 0.5"/>
   </g>
   <g id="patch_22">
    <path d="M 232.433704 88.216 
L 240.566889 88.216 
L 240.566889 87.311343 
L 232.433704 87.311343 
z
" clip-path="url(#p251391948b)" style="fill: #008000; opacity: 0.5"/>
   </g>
   <g id="matplotlib.axis_1">
    <g id="xtick_1">
     <g id="line2d_1">
      <defs>
       <path id="mfdc11bd60e" d="M 0 0 
L 0 3.5 
" style="stroke: #000000; stroke-width: 0.8"/>
      </defs>
      <g>
       <use xlink:href="#mfdc11bd60e" x="77.357694" y="88.216" style="stroke: #000000; stroke-width: 0.8"/>
      </g>
     </g>
     <g id="text_1">
      <!-- 0.00 -->
      <g transform="translate(59.545194 107.3735) scale(0.16 -0.16)">
       <defs>
        <path id="DejaVuSans-30" d="M 2034 4250 
Q 1547 4250 1301 3770 
Q 1056 3291 1056 2328 
Q 1056 1369 1301 889 
Q 1547 409 2034 409 
Q 2525 409 2770 889 
Q 3016 1369 3016 2328 
Q 3016 3291 2770 3770 
Q 2525 4250 2034 4250 
z
M 2034 4750 
Q 2819 4750 3233 4129 
Q 3647 3509 3647 2328 
Q 3647 1150 3233 529 
Q 2819 -91 2034 -91 
Q 1250 -91 836 529 
Q 422 1150 422 2328 
Q 422 3509 836 4129 
Q 1250 4750 2034 4750 
z
" transform="scale(0.015625)"/>
        <path id="DejaVuSans-2e" d="M 684 794 
L 1344 794 
L 1344 0 
L 684 0 
L 684 794 
z
" transform="scale(0.015625)"/>
       </defs>
       <use xlink:href="#DejaVuSans-30"/>
       <use xlink:href="#DejaVuSans-2e" x="63.623047"/>
       <use xlink:href="#DejaVuSans-30" x="95.410156"/>
       <use xlink:href="#DejaVuSans-30" x="159.033203"/>
      </g>
     </g>
    </g>
    <g id="xtick_2">
     <g id="line2d_2">
      <g>
       <use xlink:href="#mfdc11bd60e" x="137.678478" y="88.216" style="stroke: #000000; stroke-width: 0.8"/>
      </g>
     </g>
     <g id="text_2">
      <!-- 0.01 -->
      <g transform="translate(119.865978 107.3735) scale(0.16 -0.16)">
       <defs>
        <path id="DejaVuSans-31" d="M 794 531 
L 1825 531 
L 1825 4091 
L 703 3866 
L 703 4441 
L 1819 4666 
L 2450 4666 
L 2450 531 
L 3481 531 
L 3481 0 
L 794 0 
L 794 531 
z
" transform="scale(0.015625)"/>
       </defs>
       <use xlink:href="#DejaVuSans-30"/>
       <use xlink:href="#DejaVuSans-2e" x="63.623047"/>
       <use xlink:href="#DejaVuSans-30" x="95.410156"/>
       <use xlink:href="#DejaVuSans-31" x="159.033203"/>
      </g>
     </g>
    </g>
    <g id="xtick_3">
     <g id="line2d_3">
      <g>
       <use xlink:href="#mfdc11bd60e" x="197.999261" y="88.216" style="stroke: #000000; stroke-width: 0.8"/>
      </g>
     </g>
     <g id="text_3">
      <!-- 0.02 -->
      <g transform="translate(180.186761 107.3735) scale(0.16 -0.16)">
       <defs>
        <path id="DejaVuSans-32" d="M 1228 531 
L 3431 531 
L 3431 0 
L 469 0 
L 469 531 
Q 828 903 1448 1529 
Q 2069 2156 2228 2338 
Q 2531 2678 2651 2914 
Q 2772 3150 2772 3378 
Q 2772 3750 2511 3984 
Q 2250 4219 1831 4219 
Q 1534 4219 1204 4116 
Q 875 4013 500 3803 
L 500 4441 
Q 881 4594 1212 4672 
Q 1544 4750 1819 4750 
Q 2544 4750 2975 4387 
Q 3406 4025 3406 3419 
Q 3406 3131 3298 2873 
Q 3191 2616 2906 2266 
Q 2828 2175 2409 1742 
Q 1991 1309 1228 531 
z
" transform="scale(0.015625)"/>
       </defs>
       <use xlink:href="#DejaVuSans-30"/>
       <use xlink:href="#DejaVuSans-2e" x="63.623047"/>
       <use xlink:href="#DejaVuSans-30" x="95.410156"/>
       <use xlink:href="#DejaVuSans-32" x="159.033203"/>
      </g>
     </g>
    </g>
    <g id="text_4">
     <!-- $U_{Acc}$ Estimation error -->
     <g transform="translate(65.365037 128.378187) scale(0.18 -0.18)">
      <defs>
       <path id="DejaVuSans-Oblique-55" d="M 991 4666 
L 1625 4666 
L 1075 1831 
Q 1041 1641 1027 1517 
Q 1013 1394 1013 1300 
Q 1013 869 1253 645 
Q 1494 422 1959 422 
Q 2563 422 2898 753 
Q 3234 1084 3378 1831 
L 3928 4666 
L 4563 4666 
L 4000 1753 
Q 3816 809 3300 359 
Q 2784 -91 1888 -91 
Q 1188 -91 780 261 
Q 372 613 372 1216 
Q 372 1325 387 1461 
Q 403 1597 434 1753 
L 991 4666 
z
" transform="scale(0.015625)"/>
       <path id="DejaVuSans-Oblique-41" d="M 2356 4666 
L 3072 4666 
L 3938 0 
L 3278 0 
L 3084 1197 
L 984 1197 
L 325 0 
L -341 0 
L 2356 4666 
z
M 2584 4044 
L 1275 1722 
L 2988 1722 
L 2584 4044 
z
" transform="scale(0.015625)"/>
       <path id="DejaVuSans-Oblique-63" d="M 3431 3366 
L 3316 2797 
Q 3109 2947 2876 3022 
Q 2644 3097 2394 3097 
Q 2119 3097 1870 3000 
Q 1622 2903 1453 2725 
Q 1184 2453 1037 2087 
Q 891 1722 891 1331 
Q 891 859 1127 628 
Q 1363 397 1844 397 
Q 2081 397 2348 469 
Q 2616 541 2906 684 
L 2797 116 
Q 2547 13 2283 -39 
Q 2019 -91 1741 -91 
Q 1044 -91 669 257 
Q 294 606 294 1253 
Q 294 1797 489 2255 
Q 684 2713 1069 3078 
Q 1331 3328 1684 3456 
Q 2038 3584 2456 3584 
Q 2700 3584 2940 3529 
Q 3181 3475 3431 3366 
z
" transform="scale(0.015625)"/>
       <path id="DejaVuSans-20" transform="scale(0.015625)"/>
       <path id="DejaVuSans-45" d="M 628 4666 
L 3578 4666 
L 3578 4134 
L 1259 4134 
L 1259 2753 
L 3481 2753 
L 3481 2222 
L 1259 2222 
L 1259 531 
L 3634 531 
L 3634 0 
L 628 0 
L 628 4666 
z
" transform="scale(0.015625)"/>
       <path id="DejaVuSans-73" d="M 2834 3397 
L 2834 2853 
Q 2591 2978 2328 3040 
Q 2066 3103 1784 3103 
Q 1356 3103 1142 2972 
Q 928 2841 928 2578 
Q 928 2378 1081 2264 
Q 1234 2150 1697 2047 
L 1894 2003 
Q 2506 1872 2764 1633 
Q 3022 1394 3022 966 
Q 3022 478 2636 193 
Q 2250 -91 1575 -91 
Q 1294 -91 989 -36 
Q 684 19 347 128 
L 347 722 
Q 666 556 975 473 
Q 1284 391 1588 391 
Q 1994 391 2212 530 
Q 2431 669 2431 922 
Q 2431 1156 2273 1281 
Q 2116 1406 1581 1522 
L 1381 1569 
Q 847 1681 609 1914 
Q 372 2147 372 2553 
Q 372 3047 722 3315 
Q 1072 3584 1716 3584 
Q 2034 3584 2315 3537 
Q 2597 3491 2834 3397 
z
" transform="scale(0.015625)"/>
       <path id="DejaVuSans-74" d="M 1172 4494 
L 1172 3500 
L 2356 3500 
L 2356 3053 
L 1172 3053 
L 1172 1153 
Q 1172 725 1289 603 
Q 1406 481 1766 481 
L 2356 481 
L 2356 0 
L 1766 0 
Q 1100 0 847 248 
Q 594 497 594 1153 
L 594 3053 
L 172 3053 
L 172 3500 
L 594 3500 
L 594 4494 
L 1172 4494 
z
" transform="scale(0.015625)"/>
       <path id="DejaVuSans-69" d="M 603 3500 
L 1178 3500 
L 1178 0 
L 603 0 
L 603 3500 
z
M 603 4863 
L 1178 4863 
L 1178 4134 
L 603 4134 
L 603 4863 
z
" transform="scale(0.015625)"/>
       <path id="DejaVuSans-6d" d="M 3328 2828 
Q 3544 3216 3844 3400 
Q 4144 3584 4550 3584 
Q 5097 3584 5394 3201 
Q 5691 2819 5691 2113 
L 5691 0 
L 5113 0 
L 5113 2094 
Q 5113 2597 4934 2840 
Q 4756 3084 4391 3084 
Q 3944 3084 3684 2787 
Q 3425 2491 3425 1978 
L 3425 0 
L 2847 0 
L 2847 2094 
Q 2847 2600 2669 2842 
Q 2491 3084 2119 3084 
Q 1678 3084 1418 2786 
Q 1159 2488 1159 1978 
L 1159 0 
L 581 0 
L 581 3500 
L 1159 3500 
L 1159 2956 
Q 1356 3278 1631 3431 
Q 1906 3584 2284 3584 
Q 2666 3584 2933 3390 
Q 3200 3197 3328 2828 
z
" transform="scale(0.015625)"/>
       <path id="DejaVuSans-61" d="M 2194 1759 
Q 1497 1759 1228 1600 
Q 959 1441 959 1056 
Q 959 750 1161 570 
Q 1363 391 1709 391 
Q 2188 391 2477 730 
Q 2766 1069 2766 1631 
L 2766 1759 
L 2194 1759 
z
M 3341 1997 
L 3341 0 
L 2766 0 
L 2766 531 
Q 2569 213 2275 61 
Q 1981 -91 1556 -91 
Q 1019 -91 701 211 
Q 384 513 384 1019 
Q 384 1609 779 1909 
Q 1175 2209 1959 2209 
L 2766 2209 
L 2766 2266 
Q 2766 2663 2505 2880 
Q 2244 3097 1772 3097 
Q 1472 3097 1187 3025 
Q 903 2953 641 2809 
L 641 3341 
Q 956 3463 1253 3523 
Q 1550 3584 1831 3584 
Q 2591 3584 2966 3190 
Q 3341 2797 3341 1997 
z
" transform="scale(0.015625)"/>
       <path id="DejaVuSans-6f" d="M 1959 3097 
Q 1497 3097 1228 2736 
Q 959 2375 959 1747 
Q 959 1119 1226 758 
Q 1494 397 1959 397 
Q 2419 397 2687 759 
Q 2956 1122 2956 1747 
Q 2956 2369 2687 2733 
Q 2419 3097 1959 3097 
z
M 1959 3584 
Q 2709 3584 3137 3096 
Q 3566 2609 3566 1747 
Q 3566 888 3137 398 
Q 2709 -91 1959 -91 
Q 1206 -91 779 398 
Q 353 888 353 1747 
Q 353 2609 779 3096 
Q 1206 3584 1959 3584 
z
" transform="scale(0.015625)"/>
       <path id="DejaVuSans-6e" d="M 3513 2113 
L 3513 0 
L 2938 0 
L 2938 2094 
Q 2938 2591 2744 2837 
Q 2550 3084 2163 3084 
Q 1697 3084 1428 2787 
Q 1159 2491 1159 1978 
L 1159 0 
L 581 0 
L 581 3500 
L 1159 3500 
L 1159 2956 
Q 1366 3272 1645 3428 
Q 1925 3584 2291 3584 
Q 2894 3584 3203 3211 
Q 3513 2838 3513 2113 
z
" transform="scale(0.015625)"/>
       <path id="DejaVuSans-65" d="M 3597 1894 
L 3597 1613 
L 953 1613 
Q 991 1019 1311 708 
Q 1631 397 2203 397 
Q 2534 397 2845 478 
Q 3156 559 3463 722 
L 3463 178 
Q 3153 47 2828 -22 
Q 2503 -91 2169 -91 
Q 1331 -91 842 396 
Q 353 884 353 1716 
Q 353 2575 817 3079 
Q 1281 3584 2069 3584 
Q 2775 3584 3186 3129 
Q 3597 2675 3597 1894 
z
M 3022 2063 
Q 3016 2534 2758 2815 
Q 2500 3097 2075 3097 
Q 1594 3097 1305 2825 
Q 1016 2553 972 2059 
L 3022 2063 
z
" transform="scale(0.015625)"/>
       <path id="DejaVuSans-72" d="M 2631 2963 
Q 2534 3019 2420 3045 
Q 2306 3072 2169 3072 
Q 1681 3072 1420 2755 
Q 1159 2438 1159 1844 
L 1159 0 
L 581 0 
L 581 3500 
L 1159 3500 
L 1159 2956 
Q 1341 3275 1631 3429 
Q 1922 3584 2338 3584 
Q 2397 3584 2469 3576 
Q 2541 3569 2628 3553 
L 2631 2963 
z
" transform="scale(0.015625)"/>
      </defs>
      <use xlink:href="#DejaVuSans-Oblique-55" transform="translate(0 0.015625)"/>
      <use xlink:href="#DejaVuSans-Oblique-41" transform="translate(73.193359 -16.390625) scale(0.7)"/>
      <use xlink:href="#DejaVuSans-Oblique-63" transform="translate(121.079102 -16.390625) scale(0.7)"/>
      <use xlink:href="#DejaVuSans-Oblique-63" transform="translate(159.56543 -16.390625) scale(0.7)"/>
      <use xlink:href="#DejaVuSans-20" transform="translate(200.786133 0.015625)"/>
      <use xlink:href="#DejaVuSans-45" transform="translate(232.573242 0.015625)"/>
      <use xlink:href="#DejaVuSans-73" transform="translate(295.756836 0.015625)"/>
      <use xlink:href="#DejaVuSans-74" transform="translate(347.856445 0.015625)"/>
      <use xlink:href="#DejaVuSans-69" transform="translate(387.06543 0.015625)"/>
      <use xlink:href="#DejaVuSans-6d" transform="translate(414.848633 0.015625)"/>
      <use xlink:href="#DejaVuSans-61" transform="translate(512.260742 0.015625)"/>
      <use xlink:href="#DejaVuSans-74" transform="translate(573.540039 0.015625)"/>
      <use xlink:href="#DejaVuSans-69" transform="translate(612.749023 0.015625)"/>
      <use xlink:href="#DejaVuSans-6f" transform="translate(640.532227 0.015625)"/>
      <use xlink:href="#DejaVuSans-6e" transform="translate(701.713867 0.015625)"/>
      <use xlink:href="#DejaVuSans-20" transform="translate(765.092773 0.015625)"/>
      <use xlink:href="#DejaVuSans-65" transform="translate(796.879883 0.015625)"/>
      <use xlink:href="#DejaVuSans-72" transform="translate(858.40332 0.015625)"/>
      <use xlink:href="#DejaVuSans-72" transform="translate(899.516602 0.015625)"/>
      <use xlink:href="#DejaVuSans-6f" transform="translate(940.629883 0.015625)"/>
      <use xlink:href="#DejaVuSans-72" transform="translate(1001.811523 0.015625)"/>
     </g>
    </g>
   </g>
   <g id="matplotlib.axis_2">
    <g id="ytick_1">
     <g id="line2d_4">
      <defs>
       <path id="mb762837268" d="M 0 0 
L -3.5 0 
" style="stroke: #000000; stroke-width: 0.8"/>
      </defs>
      <g>
       <use xlink:href="#mb762837268" x="69.77" y="88.216" style="stroke: #000000; stroke-width: 0.8"/>
      </g>
     </g>
     <g id="text_5">
      <!-- 0 -->
      <g transform="translate(52.59 94.29475) scale(0.16 -0.16)">
       <use xlink:href="#DejaVuSans-30"/>
      </g>
     </g>
    </g>
    <g id="ytick_2">
     <g id="line2d_5">
      <g>
       <use xlink:href="#mb762837268" x="69.77" y="42.983163" style="stroke: #000000; stroke-width: 0.8"/>
      </g>
     </g>
     <g id="text_6">
      <!-- 100 -->
      <g transform="translate(32.23 49.061913) scale(0.16 -0.16)">
       <use xlink:href="#DejaVuSans-31"/>
       <use xlink:href="#DejaVuSans-30" x="63.623047"/>
       <use xlink:href="#DejaVuSans-30" x="127.246094"/>
      </g>
     </g>
    </g>
    <g id="text_7">
     <!-- Counts -->
     <g transform="translate(24.486563 80.923625) rotate(-90) scale(0.18 -0.18)">
      <defs>
       <path id="DejaVuSans-43" d="M 4122 4306 
L 4122 3641 
Q 3803 3938 3442 4084 
Q 3081 4231 2675 4231 
Q 1875 4231 1450 3742 
Q 1025 3253 1025 2328 
Q 1025 1406 1450 917 
Q 1875 428 2675 428 
Q 3081 428 3442 575 
Q 3803 722 4122 1019 
L 4122 359 
Q 3791 134 3420 21 
Q 3050 -91 2638 -91 
Q 1578 -91 968 557 
Q 359 1206 359 2328 
Q 359 3453 968 4101 
Q 1578 4750 2638 4750 
Q 3056 4750 3426 4639 
Q 3797 4528 4122 4306 
z
" transform="scale(0.015625)"/>
       <path id="DejaVuSans-75" d="M 544 1381 
L 544 3500 
L 1119 3500 
L 1119 1403 
Q 1119 906 1312 657 
Q 1506 409 1894 409 
Q 2359 409 2629 706 
Q 2900 1003 2900 1516 
L 2900 3500 
L 3475 3500 
L 3475 0 
L 2900 0 
L 2900 538 
Q 2691 219 2414 64 
Q 2138 -91 1772 -91 
Q 1169 -91 856 284 
Q 544 659 544 1381 
z
M 1991 3584 
L 1991 3584 
z
" transform="scale(0.015625)"/>
      </defs>
      <use xlink:href="#DejaVuSans-43"/>
      <use xlink:href="#DejaVuSans-6f" x="69.824219"/>
      <use xlink:href="#DejaVuSans-75" x="131.005859"/>
      <use xlink:href="#DejaVuSans-6e" x="194.384766"/>
      <use xlink:href="#DejaVuSans-74" x="257.763672"/>
      <use xlink:href="#DejaVuSans-73" x="296.972656"/>
     </g>
    </g>
   </g>
   <g id="patch_23">
    <path d="M 69.77 88.216 
L 69.77 10.8 
" style="fill: none; stroke: #000000; stroke-width: 0.8; stroke-linejoin: miter; stroke-linecap: square"/>
   </g>
   <g id="patch_24">
    <path d="M 248.700074 88.216 
L 248.700074 10.8 
" style="fill: none; stroke: #000000; stroke-width: 0.8; stroke-linejoin: miter; stroke-linecap: square"/>
   </g>
   <g id="patch_25">
    <path d="M 69.77 88.216 
L 248.700074 88.216 
" style="fill: none; stroke: #000000; stroke-width: 0.8; stroke-linejoin: miter; stroke-linecap: square"/>
   </g>
   <g id="patch_26">
    <path d="M 69.77 10.8 
L 248.700074 10.8 
" style="fill: none; stroke: #000000; stroke-width: 0.8; stroke-linejoin: miter; stroke-linecap: square"/>
   </g>
  </g>
  <g id="axes_2">
   <g id="patch_27">
    <path d="M 300.019963 88.216 
L 478.950037 88.216 
L 478.950037 10.8 
L 300.019963 10.8 
z
" style="fill: #ffffff"/>
   </g>
   <g id="patch_28">
    <path d="M 308.153148 88.216 
L 316.286333 88.216 
L 316.286333 14.486476 
L 308.153148 14.486476 
z
" clip-path="url(#p8cad259cbc)" style="fill: #0000ff; opacity: 0.5"/>
   </g>
   <g id="patch_29">
    <path d="M 316.286333 88.216 
L 324.419518 88.216 
L 324.419518 15.595191 
L 316.286333 15.595191 
z
" clip-path="url(#p8cad259cbc)" style="fill: #0000ff; opacity: 0.5"/>
   </g>
   <g id="patch_30">
    <path d="M 324.419518 88.216 
L 332.552704 88.216 
L 332.552704 21.138764 
L 324.419518 21.138764 
z
" clip-path="url(#p8cad259cbc)" style="fill: #0000ff; opacity: 0.5"/>
   </g>
   <g id="patch_31">
    <path d="M 332.552704 88.216 
L 340.685889 88.216 
L 340.685889 24.464908 
L 332.552704 24.464908 
z
" clip-path="url(#p8cad259cbc)" style="fill: #0000ff; opacity: 0.5"/>
   </g>
   <g id="patch_32">
    <path d="M 340.685889 88.216 
L 348.819074 88.216 
L 348.819074 32.780268 
L 340.685889 32.780268 
z
" clip-path="url(#p8cad259cbc)" style="fill: #0000ff; opacity: 0.5"/>
   </g>
   <g id="patch_33">
    <path d="M 348.819074 88.216 
L 356.952259 88.216 
L 356.952259 34.44334 
L 348.819074 34.44334 
z
" clip-path="url(#p8cad259cbc)" style="fill: #0000ff; opacity: 0.5"/>
   </g>
   <g id="patch_34">
    <path d="M 356.952259 88.216 
L 365.085444 88.216 
L 365.085444 48.302273 
L 356.952259 48.302273 
z
" clip-path="url(#p8cad259cbc)" style="fill: #0000ff; opacity: 0.5"/>
   </g>
   <g id="patch_35">
    <path d="M 365.085444 88.216 
L 373.21863 88.216 
L 373.21863 57.726347 
L 365.085444 57.726347 
z
" clip-path="url(#p8cad259cbc)" style="fill: #0000ff; opacity: 0.5"/>
   </g>
   <g id="patch_36">
    <path d="M 373.21863 88.216 
L 381.351815 88.216 
L 381.351815 67.704779 
L 373.21863 67.704779 
z
" clip-path="url(#p8cad259cbc)" style="fill: #0000ff; opacity: 0.5"/>
   </g>
   <g id="patch_37">
    <path d="M 381.351815 88.216 
L 389.485 88.216 
L 389.485 63.824278 
L 381.351815 63.824278 
z
" clip-path="url(#p8cad259cbc)" style="fill: #0000ff; opacity: 0.5"/>
   </g>
   <g id="patch_38">
    <path d="M 389.485 88.216 
L 397.618185 88.216 
L 397.618185 72.693995 
L 389.485 72.693995 
z
" clip-path="url(#p8cad259cbc)" style="fill: #0000ff; opacity: 0.5"/>
   </g>
   <g id="patch_39">
    <path d="M 397.618185 88.216 
L 405.75137 88.216 
L 405.75137 75.465782 
L 397.618185 75.465782 
z
" clip-path="url(#p8cad259cbc)" style="fill: #0000ff; opacity: 0.5"/>
   </g>
   <g id="patch_40">
    <path d="M 405.75137 88.216 
L 413.884556 88.216 
L 413.884556 80.454997 
L 405.75137 80.454997 
z
" clip-path="url(#p8cad259cbc)" style="fill: #0000ff; opacity: 0.5"/>
   </g>
   <g id="patch_41">
    <path d="M 413.884556 88.216 
L 422.017741 88.216 
L 422.017741 81.563712 
L 413.884556 81.563712 
z
" clip-path="url(#p8cad259cbc)" style="fill: #0000ff; opacity: 0.5"/>
   </g>
   <g id="patch_42">
    <path d="M 422.017741 88.216 
L 430.150926 88.216 
L 430.150926 83.781141 
L 422.017741 83.781141 
z
" clip-path="url(#p8cad259cbc)" style="fill: #0000ff; opacity: 0.5"/>
   </g>
   <g id="patch_43">
    <path d="M 430.150926 88.216 
L 438.284111 88.216 
L 438.284111 84.335499 
L 430.150926 84.335499 
z
" clip-path="url(#p8cad259cbc)" style="fill: #0000ff; opacity: 0.5"/>
   </g>
   <g id="patch_44">
    <path d="M 438.284111 88.216 
L 446.417296 88.216 
L 446.417296 87.107285 
L 438.284111 87.107285 
z
" clip-path="url(#p8cad259cbc)" style="fill: #0000ff; opacity: 0.5"/>
   </g>
   <g id="patch_45">
    <path d="M 446.417296 88.216 
L 454.550482 88.216 
L 454.550482 88.216 
L 446.417296 88.216 
z
" clip-path="url(#p8cad259cbc)" style="fill: #0000ff; opacity: 0.5"/>
   </g>
   <g id="patch_46">
    <path d="M 454.550482 88.216 
L 462.683667 88.216 
L 462.683667 88.216 
L 454.550482 88.216 
z
" clip-path="url(#p8cad259cbc)" style="fill: #0000ff; opacity: 0.5"/>
   </g>
   <g id="patch_47">
    <path d="M 462.683667 88.216 
L 470.816852 88.216 
L 470.816852 87.661643 
L 462.683667 87.661643 
z
" clip-path="url(#p8cad259cbc)" style="fill: #0000ff; opacity: 0.5"/>
   </g>
   <g id="matplotlib.axis_3">
    <g id="xtick_4">
     <g id="line2d_6">
      <g>
       <use xlink:href="#mfdc11bd60e" x="308.003424" y="88.216" style="stroke: #000000; stroke-width: 0.8"/>
      </g>
     </g>
     <g id="text_8">
      <!-- 0.00 -->
      <g transform="translate(290.190924 107.3735) scale(0.16 -0.16)">
       <use xlink:href="#DejaVuSans-30"/>
       <use xlink:href="#DejaVuSans-2e" x="63.623047"/>
       <use xlink:href="#DejaVuSans-30" x="95.410156"/>
       <use xlink:href="#DejaVuSans-30" x="159.033203"/>
      </g>
     </g>
    </g>
    <g id="xtick_5">
     <g id="line2d_7">
      <g>
       <use xlink:href="#mfdc11bd60e" x="385.280678" y="88.216" style="stroke: #000000; stroke-width: 0.8"/>
      </g>
     </g>
     <g id="text_9">
      <!-- 0.05 -->
      <g transform="translate(367.468178 107.3735) scale(0.16 -0.16)">
       <defs>
        <path id="DejaVuSans-35" d="M 691 4666 
L 3169 4666 
L 3169 4134 
L 1269 4134 
L 1269 2991 
Q 1406 3038 1543 3061 
Q 1681 3084 1819 3084 
Q 2600 3084 3056 2656 
Q 3513 2228 3513 1497 
Q 3513 744 3044 326 
Q 2575 -91 1722 -91 
Q 1428 -91 1123 -41 
Q 819 9 494 109 
L 494 744 
Q 775 591 1075 516 
Q 1375 441 1709 441 
Q 2250 441 2565 725 
Q 2881 1009 2881 1497 
Q 2881 1984 2565 2268 
Q 2250 2553 1709 2553 
Q 1456 2553 1204 2497 
Q 953 2441 691 2322 
L 691 4666 
z
" transform="scale(0.015625)"/>
       </defs>
       <use xlink:href="#DejaVuSans-30"/>
       <use xlink:href="#DejaVuSans-2e" x="63.623047"/>
       <use xlink:href="#DejaVuSans-30" x="95.410156"/>
       <use xlink:href="#DejaVuSans-35" x="159.033203"/>
      </g>
     </g>
    </g>
    <g id="xtick_6">
     <g id="line2d_8">
      <g>
       <use xlink:href="#mfdc11bd60e" x="462.557933" y="88.216" style="stroke: #000000; stroke-width: 0.8"/>
      </g>
     </g>
     <g id="text_10">
      <!-- 0.10 -->
      <g transform="translate(444.745433 107.3735) scale(0.16 -0.16)">
       <use xlink:href="#DejaVuSans-30"/>
       <use xlink:href="#DejaVuSans-2e" x="63.623047"/>
       <use xlink:href="#DejaVuSans-31" x="95.410156"/>
       <use xlink:href="#DejaVuSans-30" x="159.033203"/>
      </g>
     </g>
    </g>
    <g id="text_11">
     <!-- $U_{EO}$ Estimation error -->
     <g transform="translate(297.865 128.378187) scale(0.18 -0.18)">
      <defs>
       <path id="DejaVuSans-Oblique-45" d="M 1081 4666 
L 4031 4666 
L 3928 4134 
L 1606 4134 
L 1338 2753 
L 3566 2753 
L 3463 2222 
L 1234 2222 
L 909 531 
L 3284 531 
L 3181 0 
L 172 0 
L 1081 4666 
z
" transform="scale(0.015625)"/>
       <path id="DejaVuSans-Oblique-4f" d="M 2919 4238 
Q 2400 4238 2003 3986 
Q 1606 3734 1313 3219 
Q 1125 2891 1026 2522 
Q 928 2153 928 1778 
Q 928 1128 1239 775 
Q 1550 422 2119 422 
Q 2631 422 3032 676 
Q 3434 931 3719 1434 
Q 3909 1772 4009 2142 
Q 4109 2513 4109 2881 
Q 4109 3528 3796 3883 
Q 3484 4238 2919 4238 
z
M 2100 -91 
Q 1241 -91 748 418 
Q 256 928 256 1813 
Q 256 2319 448 2847 
Q 641 3375 978 3788 
Q 1375 4272 1862 4511 
Q 2350 4750 2938 4750 
Q 3794 4750 4287 4245 
Q 4781 3741 4781 2869 
Q 4781 2331 4593 1812 
Q 4406 1294 4056 872 
Q 3656 384 3173 146 
Q 2691 -91 2100 -91 
z
" transform="scale(0.015625)"/>
      </defs>
      <use xlink:href="#DejaVuSans-Oblique-55" transform="translate(0 0.015625)"/>
      <use xlink:href="#DejaVuSans-Oblique-45" transform="translate(73.193359 -16.390625) scale(0.7)"/>
      <use xlink:href="#DejaVuSans-Oblique-4f" transform="translate(117.421875 -16.390625) scale(0.7)"/>
      <use xlink:href="#DejaVuSans-20" transform="translate(175.253906 0.015625)"/>
      <use xlink:href="#DejaVuSans-45" transform="translate(207.041016 0.015625)"/>
      <use xlink:href="#DejaVuSans-73" transform="translate(270.224609 0.015625)"/>
      <use xlink:href="#DejaVuSans-74" transform="translate(322.324219 0.015625)"/>
      <use xlink:href="#DejaVuSans-69" transform="translate(361.533203 0.015625)"/>
      <use xlink:href="#DejaVuSans-6d" transform="translate(389.316406 0.015625)"/>
      <use xlink:href="#DejaVuSans-61" transform="translate(486.728516 0.015625)"/>
      <use xlink:href="#DejaVuSans-74" transform="translate(548.007812 0.015625)"/>
      <use xlink:href="#DejaVuSans-69" transform="translate(587.216797 0.015625)"/>
      <use xlink:href="#DejaVuSans-6f" transform="translate(615 0.015625)"/>
      <use xlink:href="#DejaVuSans-6e" transform="translate(676.181641 0.015625)"/>
      <use xlink:href="#DejaVuSans-20" transform="translate(739.560547 0.015625)"/>
      <use xlink:href="#DejaVuSans-65" transform="translate(771.347656 0.015625)"/>
      <use xlink:href="#DejaVuSans-72" transform="translate(832.871094 0.015625)"/>
      <use xlink:href="#DejaVuSans-72" transform="translate(873.984375 0.015625)"/>
      <use xlink:href="#DejaVuSans-6f" transform="translate(915.097656 0.015625)"/>
      <use xlink:href="#DejaVuSans-72" transform="translate(976.279297 0.015625)"/>
     </g>
    </g>
   </g>
   <g id="matplotlib.axis_4">
    <g id="ytick_3">
     <g id="line2d_9">
      <g>
       <use xlink:href="#mb762837268" x="300.019963" y="88.216" style="stroke: #000000; stroke-width: 0.8"/>
      </g>
     </g>
     <g id="text_12">
      <!-- 0 -->
      <g transform="translate(282.839963 94.29475) scale(0.16 -0.16)">
       <use xlink:href="#DejaVuSans-30"/>
      </g>
     </g>
    </g>
    <g id="ytick_4">
     <g id="line2d_10">
      <g>
       <use xlink:href="#mb762837268" x="300.019963" y="32.780268" style="stroke: #000000; stroke-width: 0.8"/>
      </g>
     </g>
     <g id="text_13">
      <!-- 100 -->
      <g transform="translate(262.479963 38.859018) scale(0.16 -0.16)">
       <use xlink:href="#DejaVuSans-31"/>
       <use xlink:href="#DejaVuSans-30" x="63.623047"/>
       <use xlink:href="#DejaVuSans-30" x="127.246094"/>
      </g>
     </g>
    </g>
   </g>
   <g id="patch_48">
    <path d="M 300.019963 88.216 
L 300.019963 10.8 
" style="fill: none; stroke: #000000; stroke-width: 0.8; stroke-linejoin: miter; stroke-linecap: square"/>
   </g>
   <g id="patch_49">
    <path d="M 478.950037 88.216 
L 478.950037 10.8 
" style="fill: none; stroke: #000000; stroke-width: 0.8; stroke-linejoin: miter; stroke-linecap: square"/>
   </g>
   <g id="patch_50">
    <path d="M 300.019963 88.216 
L 478.950037 88.216 
" style="fill: none; stroke: #000000; stroke-width: 0.8; stroke-linejoin: miter; stroke-linecap: square"/>
   </g>
   <g id="patch_51">
    <path d="M 300.019963 10.8 
L 478.950037 10.8 
" style="fill: none; stroke: #000000; stroke-width: 0.8; stroke-linejoin: miter; stroke-linecap: square"/>
   </g>
  </g>
  <g id="axes_3">
   <g id="patch_52">
    <path d="M 530.269926 88.216 
L 709.2 88.216 
L 709.2 10.8 
L 530.269926 10.8 
z
" style="fill: #ffffff"/>
   </g>
   <g id="patch_53">
    <path d="M 538.403111 88.216 
L 546.536296 88.216 
L 546.536296 14.486476 
L 538.403111 14.486476 
z
" clip-path="url(#p9f1dd3dd47)" style="fill: #ff0000; opacity: 0.5"/>
   </g>
   <g id="patch_54">
    <path d="M 546.536296 88.216 
L 554.669481 88.216 
L 554.669481 41.387789 
L 546.536296 41.387789 
z
" clip-path="url(#p9f1dd3dd47)" style="fill: #ff0000; opacity: 0.5"/>
   </g>
   <g id="patch_55">
    <path d="M 554.669481 88.216 
L 562.802667 88.216 
L 562.802667 36.406064 
L 554.669481 36.406064 
z
" clip-path="url(#p9f1dd3dd47)" style="fill: #ff0000; opacity: 0.5"/>
   </g>
   <g id="patch_56">
    <path d="M 562.802667 88.216 
L 570.935852 88.216 
L 570.935852 42.882306 
L 562.802667 42.882306 
z
" clip-path="url(#p9f1dd3dd47)" style="fill: #ff0000; opacity: 0.5"/>
   </g>
   <g id="patch_57">
    <path d="M 570.935852 88.216 
L 579.069037 88.216 
L 579.069037 37.900582 
L 570.935852 37.900582 
z
" clip-path="url(#p9f1dd3dd47)" style="fill: #ff0000; opacity: 0.5"/>
   </g>
   <g id="patch_58">
    <path d="M 579.069037 88.216 
L 587.202222 88.216 
L 587.202222 41.387789 
L 579.069037 41.387789 
z
" clip-path="url(#p9f1dd3dd47)" style="fill: #ff0000; opacity: 0.5"/>
   </g>
   <g id="patch_59">
    <path d="M 587.202222 88.216 
L 595.335407 88.216 
L 595.335407 54.340273 
L 587.202222 54.340273 
z
" clip-path="url(#p9f1dd3dd47)" style="fill: #ff0000; opacity: 0.5"/>
   </g>
   <g id="patch_60">
    <path d="M 595.335407 88.216 
L 603.468593 88.216 
L 603.468593 52.845755 
L 595.335407 52.845755 
z
" clip-path="url(#p9f1dd3dd47)" style="fill: #ff0000; opacity: 0.5"/>
   </g>
   <g id="patch_61">
    <path d="M 603.468593 88.216 
L 611.601778 88.216 
L 611.601778 61.81286 
L 603.468593 61.81286 
z
" clip-path="url(#p9f1dd3dd47)" style="fill: #ff0000; opacity: 0.5"/>
   </g>
   <g id="patch_62">
    <path d="M 611.601778 88.216 
L 619.734963 88.216 
L 619.734963 69.285447 
L 611.601778 69.285447 
z
" clip-path="url(#p9f1dd3dd47)" style="fill: #ff0000; opacity: 0.5"/>
   </g>
   <g id="patch_63">
    <path d="M 619.734963 88.216 
L 627.868148 88.216 
L 627.868148 71.278136 
L 619.734963 71.278136 
z
" clip-path="url(#p9f1dd3dd47)" style="fill: #ff0000; opacity: 0.5"/>
   </g>
   <g id="patch_64">
    <path d="M 627.868148 88.216 
L 636.001333 88.216 
L 636.001333 69.783619 
L 627.868148 69.783619 
z
" clip-path="url(#p9f1dd3dd47)" style="fill: #ff0000; opacity: 0.5"/>
   </g>
   <g id="patch_65">
    <path d="M 636.001333 88.216 
L 644.134518 88.216 
L 644.134518 76.758033 
L 636.001333 76.758033 
z
" clip-path="url(#p9f1dd3dd47)" style="fill: #ff0000; opacity: 0.5"/>
   </g>
   <g id="patch_66">
    <path d="M 644.134518 88.216 
L 652.267704 88.216 
L 652.267704 82.237931 
L 644.134518 82.237931 
z
" clip-path="url(#p9f1dd3dd47)" style="fill: #ff0000; opacity: 0.5"/>
   </g>
   <g id="patch_67">
    <path d="M 652.267704 88.216 
L 660.400889 88.216 
L 660.400889 83.234275 
L 652.267704 83.234275 
z
" clip-path="url(#p9f1dd3dd47)" style="fill: #ff0000; opacity: 0.5"/>
   </g>
   <g id="patch_68">
    <path d="M 660.400889 88.216 
L 668.534074 88.216 
L 668.534074 85.226965 
L 660.400889 85.226965 
z
" clip-path="url(#p9f1dd3dd47)" style="fill: #ff0000; opacity: 0.5"/>
   </g>
   <g id="patch_69">
    <path d="M 668.534074 88.216 
L 676.667259 88.216 
L 676.667259 84.23062 
L 668.534074 84.23062 
z
" clip-path="url(#p9f1dd3dd47)" style="fill: #ff0000; opacity: 0.5"/>
   </g>
   <g id="patch_70">
    <path d="M 676.667259 88.216 
L 684.800444 88.216 
L 684.800444 86.721483 
L 676.667259 86.721483 
z
" clip-path="url(#p9f1dd3dd47)" style="fill: #ff0000; opacity: 0.5"/>
   </g>
   <g id="patch_71">
    <path d="M 684.800444 88.216 
L 692.93363 88.216 
L 692.93363 86.22331 
L 684.800444 86.22331 
z
" clip-path="url(#p9f1dd3dd47)" style="fill: #ff0000; opacity: 0.5"/>
   </g>
   <g id="patch_72">
    <path d="M 692.93363 88.216 
L 701.066815 88.216 
L 701.066815 87.717828 
L 692.93363 87.717828 
z
" clip-path="url(#p9f1dd3dd47)" style="fill: #ff0000; opacity: 0.5"/>
   </g>
   <g id="matplotlib.axis_5">
    <g id="xtick_7">
     <g id="line2d_11">
      <g>
       <use xlink:href="#mfdc11bd60e" x="538.398218" y="88.216" style="stroke: #000000; stroke-width: 0.8"/>
      </g>
     </g>
     <g id="text_14">
      <!-- 0.00 -->
      <g transform="translate(520.585718 107.3735) scale(0.16 -0.16)">
       <use xlink:href="#DejaVuSans-30"/>
       <use xlink:href="#DejaVuSans-2e" x="63.623047"/>
       <use xlink:href="#DejaVuSans-30" x="95.410156"/>
       <use xlink:href="#DejaVuSans-30" x="159.033203"/>
      </g>
     </g>
    </g>
    <g id="xtick_8">
     <g id="line2d_12">
      <g>
       <use xlink:href="#mfdc11bd60e" x="607.269603" y="88.216" style="stroke: #000000; stroke-width: 0.8"/>
      </g>
     </g>
     <g id="text_15">
      <!-- 0.02 -->
      <g transform="translate(589.457103 107.3735) scale(0.16 -0.16)">
       <use xlink:href="#DejaVuSans-30"/>
       <use xlink:href="#DejaVuSans-2e" x="63.623047"/>
       <use xlink:href="#DejaVuSans-30" x="95.410156"/>
       <use xlink:href="#DejaVuSans-32" x="159.033203"/>
      </g>
     </g>
    </g>
    <g id="xtick_9">
     <g id="line2d_13">
      <g>
       <use xlink:href="#mfdc11bd60e" x="676.140988" y="88.216" style="stroke: #000000; stroke-width: 0.8"/>
      </g>
     </g>
     <g id="text_16">
      <!-- 0.04 -->
      <g transform="translate(658.328488 107.3735) scale(0.16 -0.16)">
       <defs>
        <path id="DejaVuSans-34" d="M 2419 4116 
L 825 1625 
L 2419 1625 
L 2419 4116 
z
M 2253 4666 
L 3047 4666 
L 3047 1625 
L 3713 1625 
L 3713 1100 
L 3047 1100 
L 3047 0 
L 2419 0 
L 2419 1100 
L 313 1100 
L 313 1709 
L 2253 4666 
z
" transform="scale(0.015625)"/>
       </defs>
       <use xlink:href="#DejaVuSans-30"/>
       <use xlink:href="#DejaVuSans-2e" x="63.623047"/>
       <use xlink:href="#DejaVuSans-30" x="95.410156"/>
       <use xlink:href="#DejaVuSans-34" x="159.033203"/>
      </g>
     </g>
    </g>
    <g id="text_17">
     <!-- $U_{DP}$ Estimation error -->
     <g transform="translate(528.384963 128.378187) scale(0.18 -0.18)">
      <defs>
       <path id="DejaVuSans-Oblique-44" d="M 1081 4666 
L 2438 4666 
Q 3519 4666 4070 4208 
Q 4622 3750 4622 2847 
Q 4622 2250 4412 1698 
Q 4203 1147 3834 769 
Q 3463 381 2891 190 
Q 2319 0 1538 0 
L 172 0 
L 1081 4666 
z
M 1613 4147 
L 909 519 
L 1734 519 
Q 2794 519 3375 1128 
Q 3956 1738 3956 2847 
Q 3956 3519 3581 3833 
Q 3206 4147 2406 4147 
L 1613 4147 
z
" transform="scale(0.015625)"/>
       <path id="DejaVuSans-Oblique-50" d="M 1081 4666 
L 2541 4666 
Q 3178 4666 3512 4369 
Q 3847 4072 3847 3500 
Q 3847 2731 3353 2303 
Q 2859 1875 1966 1875 
L 1172 1875 
L 806 0 
L 172 0 
L 1081 4666 
z
M 1613 4147 
L 1275 2394 
L 2069 2394 
Q 2606 2394 2893 2669 
Q 3181 2944 3181 3456 
Q 3181 3784 2986 3965 
Q 2791 4147 2438 4147 
L 1613 4147 
z
" transform="scale(0.015625)"/>
      </defs>
      <use xlink:href="#DejaVuSans-Oblique-55" transform="translate(0 0.015625)"/>
      <use xlink:href="#DejaVuSans-Oblique-44" transform="translate(73.193359 -16.390625) scale(0.7)"/>
      <use xlink:href="#DejaVuSans-Oblique-50" transform="translate(127.094727 -16.390625) scale(0.7)"/>
      <use xlink:href="#DejaVuSans-20" transform="translate(172.041016 0.015625)"/>
      <use xlink:href="#DejaVuSans-45" transform="translate(203.828125 0.015625)"/>
      <use xlink:href="#DejaVuSans-73" transform="translate(267.011719 0.015625)"/>
      <use xlink:href="#DejaVuSans-74" transform="translate(319.111328 0.015625)"/>
      <use xlink:href="#DejaVuSans-69" transform="translate(358.320312 0.015625)"/>
      <use xlink:href="#DejaVuSans-6d" transform="translate(386.103516 0.015625)"/>
      <use xlink:href="#DejaVuSans-61" transform="translate(483.515625 0.015625)"/>
      <use xlink:href="#DejaVuSans-74" transform="translate(544.794922 0.015625)"/>
      <use xlink:href="#DejaVuSans-69" transform="translate(584.003906 0.015625)"/>
      <use xlink:href="#DejaVuSans-6f" transform="translate(611.787109 0.015625)"/>
      <use xlink:href="#DejaVuSans-6e" transform="translate(672.96875 0.015625)"/>
      <use xlink:href="#DejaVuSans-20" transform="translate(736.347656 0.015625)"/>
      <use xlink:href="#DejaVuSans-65" transform="translate(768.134766 0.015625)"/>
      <use xlink:href="#DejaVuSans-72" transform="translate(829.658203 0.015625)"/>
      <use xlink:href="#DejaVuSans-72" transform="translate(870.771484 0.015625)"/>
      <use xlink:href="#DejaVuSans-6f" transform="translate(911.884766 0.015625)"/>
      <use xlink:href="#DejaVuSans-72" transform="translate(973.066406 0.015625)"/>
     </g>
    </g>
   </g>
   <g id="matplotlib.axis_6">
    <g id="ytick_5">
     <g id="line2d_14">
      <g>
       <use xlink:href="#mb762837268" x="530.269926" y="88.216" style="stroke: #000000; stroke-width: 0.8"/>
      </g>
     </g>
     <g id="text_18">
      <!-- 0 -->
      <g transform="translate(513.089926 94.29475) scale(0.16 -0.16)">
       <use xlink:href="#DejaVuSans-30"/>
      </g>
     </g>
    </g>
    <g id="ytick_6">
     <g id="line2d_15">
      <g>
       <use xlink:href="#mb762837268" x="530.269926" y="38.398754" style="stroke: #000000; stroke-width: 0.8"/>
      </g>
     </g>
     <g id="text_19">
      <!-- 100 -->
      <g transform="translate(492.729926 44.477504) scale(0.16 -0.16)">
       <use xlink:href="#DejaVuSans-31"/>
       <use xlink:href="#DejaVuSans-30" x="63.623047"/>
       <use xlink:href="#DejaVuSans-30" x="127.246094"/>
      </g>
     </g>
    </g>
   </g>
   <g id="patch_73">
    <path d="M 530.269926 88.216 
L 530.269926 10.8 
" style="fill: none; stroke: #000000; stroke-width: 0.8; stroke-linejoin: miter; stroke-linecap: square"/>
   </g>
   <g id="patch_74">
    <path d="M 709.2 88.216 
L 709.2 10.8 
" style="fill: none; stroke: #000000; stroke-width: 0.8; stroke-linejoin: miter; stroke-linecap: square"/>
   </g>
   <g id="patch_75">
    <path d="M 530.269926 88.216 
L 709.2 88.216 
" style="fill: none; stroke: #000000; stroke-width: 0.8; stroke-linejoin: miter; stroke-linecap: square"/>
   </g>
   <g id="patch_76">
    <path d="M 530.269926 10.8 
L 709.2 10.8 
" style="fill: none; stroke: #000000; stroke-width: 0.8; stroke-linejoin: miter; stroke-linecap: square"/>
   </g>
  </g>
 </g>
 <defs>
  <clipPath id="p251391948b">
   <rect x="69.77" y="10.8" width="178.930074" height="77.416"/>
  </clipPath>
  <clipPath id="p8cad259cbc">
   <rect x="300.019963" y="10.8" width="178.930074" height="77.416"/>
  </clipPath>
  <clipPath id="p9f1dd3dd47">
   <rect x="530.269926" y="10.8" width="178.930074" height="77.416"/>
  </clipPath>
 </defs>
</svg>
